# 3ds Max Wavefront OBJ Exporter v0.97b - (c)2007 guruware
# File Created: 29.11.2013 17:53:36

#
# object 15
#

v  -4.0000 0.0000 -4.0000
v  -4.0000 0.0000 -8.0000
v  -8.0000 0.0000 -8.0000
v  -8.0000 0.0000 -4.0000
# 4 vertices

vn 0.0000 1.0000 -0.0000
# 1 vertex normals

vt 0.9995 0.0005 0.5000
vt 0.9995 0.9995 0.5000
vt 0.0005 0.9995 0.5000
vt 0.0005 0.0005 0.5000
# 4 texture coords

g 15
s 1
f 1/1/1 2/2/1 3/3/1 4/4/1 
# 1 polygons

#
# object 16
#

v  0.0000 0.0000 -4.0000
v  0.0000 0.0000 -8.0000
v  -4.0000 0.0000 -8.0000
v  -4.0000 0.0000 -4.0000
# 4 vertices

vn 0.0000 1.0000 -0.0000
# 1 vertex normals

vt 0.9995 0.0005 0.5000
vt 0.9995 0.9995 0.5000
vt 0.0005 0.9995 0.5000
vt 0.0005 0.0005 0.5000
# 4 texture coords

g 16
s 1
f 5/5/2 6/6/2 7/7/2 8/8/2 
# 1 polygons

#
# object 17
#

v  0.0000 0.0000 -4.0000
v  2.0000 0.0000 -4.0000
v  2.0000 0.0000 -8.0000
v  0.0000 0.0000 -8.0000
# 4 vertices

vn 0.0000 1.0000 -0.0000
# 1 vertex normals

vt 0.0005 0.0005 0.5000
vt 0.9995 0.0005 0.5000
vt 0.9995 0.9995 0.5000
vt 0.0005 0.9995 0.5000
# 4 texture coords

g 17
s 1
f 9/9/3 10/10/3 11/11/3 12/12/3 
# 1 polygons

#
# object 18
#

v  8.0000 0.0000 -4.0000
v  8.0000 0.0000 -8.0000
v  2.0000 0.0000 -8.0000
v  4.0000 0.0000 -4.0000
v  2.0000 0.0000 -4.0000
# 5 vertices

vn 0.0000 1.0000 -0.0000
# 1 vertex normals

vt 0.9995 0.0005 0.5000
vt 0.9995 0.9995 0.5000
vt 0.0005 0.9995 0.5000
vt 0.3335 0.0005 0.5000
vt 0.0005 0.0005 0.5000
# 5 texture coords

g 18
s 1
f 13/13/4 14/14/4 15/15/4 16/16/4 
f 17/17/4 16/16/4 15/15/4 
# 1 polygons - 1 triangles

#
# object 19
#

v  -8.0000 0.0000 -0.0000
v  -4.0000 0.0000 -0.0000
v  -4.0000 0.0000 -4.0000
v  -8.0000 0.0000 -4.0000
# 4 vertices

vn 0.0000 1.0000 -0.0000
# 1 vertex normals

vt 0.0005 0.0005 0.5000
vt 0.9995 0.0005 0.5000
vt 0.9995 0.9995 0.5000
vt 0.0005 0.9995 0.5000
# 4 texture coords

g 19
s 1
f 18/18/5 19/19/5 20/20/5 21/21/5 
# 1 polygons

#
# object 20
#

v  -4.0000 0.0000 -0.0000
v  0.0000 0.0000 -0.0000
v  0.0000 0.0000 -4.0000
v  -4.0000 0.0000 -4.0000
# 4 vertices

vn 0.0000 1.0000 -0.0000
# 1 vertex normals

vt 0.0005 0.0005 0.5000
vt 0.9995 0.0005 0.5000
vt 0.9995 0.9995 0.5000
vt 0.0005 0.9995 0.5000
# 4 texture coords

g 20
s 1
f 22/22/6 23/23/6 24/24/6 25/25/6 
# 1 polygons

#
# object 21
#

v  4.0000 0.0000 -0.0000
v  4.0000 0.0000 -4.0000
v  2.0000 0.0000 -4.0000
v  0.0000 0.0000 -0.0000
v  0.0000 0.0000 -4.0000
# 5 vertices

vn 0.0000 1.0000 -0.0000
# 1 vertex normals

vt 0.9995 0.0005 0.5000
vt 0.9995 0.9995 0.5000
vt 0.5000 0.9995 0.5000
vt 0.0005 0.0005 0.5000
vt 0.0005 0.9995 0.5000
# 5 texture coords

g 21
s 1
f 26/26/7 27/27/7 28/28/7 29/29/7 
f 29/29/7 28/28/7 30/30/7 
# 1 polygons - 1 triangles

#
# object 22
#

v  4.0000 0.0000 2.0000
v  8.0000 0.0000 2.0000
v  8.0000 0.0000 -4.0000
v  4.0000 0.0000 -0.0000
v  4.0000 0.0000 -4.0000
# 5 vertices

vn 0.0000 1.0000 -0.0000
# 1 vertex normals

vt 0.0005 0.0005 0.5000
vt 0.9995 0.0005 0.5000
vt 0.9995 0.9995 0.5000
vt 0.0005 0.3335 0.5000
vt 0.0005 0.9995 0.5000
# 5 texture coords

g 22
s 1
f 31/31/8 32/32/8 33/33/8 34/34/8 
f 34/34/8 33/33/8 35/35/8 
# 1 polygons - 1 triangles

#
# object 23
#

v  -8.0000 0.0000 4.0000
v  -4.0000 0.0000 4.0000
v  -4.0000 0.0000 -0.0000
v  -8.0000 0.0000 -0.0000
# 4 vertices

vn 0.0000 1.0000 -0.0000
# 1 vertex normals

vt 0.0005 0.0005 0.5000
vt 0.9995 0.0005 0.5000
vt 0.9995 0.9995 0.5000
vt 0.0005 0.9995 0.5000
# 4 texture coords

g 23
s 1
f 36/36/9 37/37/9 38/38/9 39/39/9 
# 1 polygons

#
# object 24
#

v  -4.0000 0.0000 4.0000
v  0.0000 0.0000 4.0000
v  0.0000 0.0000 -0.0000
v  -4.0000 0.0000 -0.0000
# 4 vertices

vn 0.0000 1.0000 -0.0000
# 1 vertex normals

vt 0.0005 0.0005 0.5000
vt 0.9995 0.0005 0.5000
vt 0.9995 0.9995 0.5000
vt 0.0005 0.9995 0.5000
# 4 texture coords

g 24
s 1
f 40/40/10 41/41/10 42/42/10 43/43/10 
# 1 polygons

#
# object 25
#

v  4.0000 0.0000 4.0000
v  4.0000 0.0000 2.0000
v  4.0000 0.0000 -0.0000
v  0.0000 0.0000 4.0000
v  0.0000 0.0000 -0.0000
# 5 vertices

vn 0.0000 1.0000 -0.0000
vn 1.0000 0.0000 -0.0000
# 2 vertex normals

vt 0.9995 0.0005 0.5000
vt 0.9995 0.5000 0.5000
vt 0.9995 0.9995 0.5000
vt 0.0005 0.0005 0.5000
vt 0.0005 0.9995 0.5000
# 5 texture coords

g 25
s 1
f 44/44/11 45/45/12 46/46/11 47/47/11 
f 47/47/11 46/46/11 48/48/11 
# 1 polygons - 1 triangles

#
# object 26
#

v  4.0000 0.0000 4.0000
v  8.0000 0.0000 4.0000
v  8.0000 0.0000 2.0000
v  4.0000 0.0000 2.0000
# 4 vertices

vn 0.0000 1.0000 -0.0000
# 1 vertex normals

vt 0.0005 0.0005 0.5000
vt 0.9995 0.0005 0.5000
vt 0.9995 0.9995 0.5000
vt 0.0005 0.9995 0.5000
# 4 texture coords

g 26
s 1
f 49/49/13 50/50/13 51/51/13 52/52/13 
# 1 polygons

#
# object 27
#

v  -8.0000 0.0000 8.0000
v  -4.0000 0.0000 8.0000
v  -4.0000 0.0000 4.0000
v  -8.0000 0.0000 4.0000
# 4 vertices

vn 0.0000 1.0000 -0.0000
# 1 vertex normals

vt 0.0005 0.0005 0.5000
vt 0.9995 0.0005 0.5000
vt 0.9995 0.9995 0.5000
vt 0.0005 0.9995 0.5000
# 4 texture coords

g 27
s 1
f 53/53/14 54/54/14 55/55/14 56/56/14 
# 1 polygons

#
# object 28
#

v  -4.0000 0.0000 8.0000
v  0.0000 0.0000 8.0000
v  0.0000 0.0000 4.0000
v  -4.0000 0.0000 4.0000
# 4 vertices

vn 0.0000 1.0000 -0.0000
# 1 vertex normals

vt 0.0005 0.0005 0.5000
vt 0.9995 0.0005 0.5000
vt 0.9995 0.9995 0.5000
vt 0.0005 0.9995 0.5000
# 4 texture coords

g 28
s 1
f 57/57/15 58/58/15 59/59/15 60/60/15 
# 1 polygons

#
# object 29
#

v  0.0000 0.0000 8.0000
v  4.0000 0.0000 8.0000
v  4.0000 0.0000 4.0000
v  0.0000 0.0000 4.0000
# 4 vertices

vn 0.0000 1.0000 -0.0000
# 1 vertex normals

vt 0.0005 0.0005 0.5000
vt 0.9995 0.0005 0.5000
vt 0.9995 0.9995 0.5000
vt 0.0005 0.9995 0.5000
# 4 texture coords

g 29
s 1
f 61/61/16 62/62/16 63/63/16 64/64/16 
# 1 polygons

#
# object 30
#

v  4.0000 0.0000 8.0000
v  8.0000 0.0000 8.0000
v  8.0000 0.0000 4.0000
v  4.0000 0.0000 4.0000
# 4 vertices

vn 0.0000 1.0000 -0.0000
# 1 vertex normals

vt 0.0005 0.0005 0.5000
vt 0.9995 0.0005 0.5000
vt 0.9995 0.9995 0.5000
vt 0.0005 0.9995 0.5000
# 4 texture coords

g 30
s 1
f 65/65/17 66/66/17 67/67/17 68/68/17 
# 1 polygons

